# xmcd
#
# Track frame offsets: 
#        150
#        19270
#        40407
#        61907
#        79300
#        99445
#        117820
#        137932
#        157382
#        180802
#        201010
#        222587
#        242320
#        258067
#
# Disc length: 3775 seconds
#
# Revision: 3
# Processed by: cddbd v1.5.2PL0 Copyright (c) Steve Scherf et al.
# Submitted via: ExactAudioCopy v1.0b3
#
DISCID=bd0ebd0e
DTITLE=???? - withII?Yumi Tanimura Best Selection?
DYEAR=1994
DGENRE=JPop
TTITLE0=???????re-mix?
TTITLE1=??????????
TTITLE2=???????
TTITLE3=?????????
TTITLE4=??????(single version)
TTITLE5=6???
TTITLE6=??
TTITLE7=?????Believe
TTITLE8=???????
TTITLE9=????
TTITLE10=???KISS
TTITLE11=??????
TTITLE12=???????????
TTITLE13=?????
EXTD=YEAR: 1994
EXTT0=
EXTT1=
EXTT2=
EXTT3=
EXTT4=
EXTT5=
EXTT6=
EXTT7=
EXTT8=
EXTT9=
EXTT10=
EXTT11=
EXTT12=
EXTT13=
PLAYORDER=
